G04 (created by PCBNEW (2013-07-07 BZR 4022)-stable) date 3/7/2014 1:37:03 AM*
%MOIN*%
G04 Gerber Fmt 3.4, Leading zero omitted, Abs format*
%FSLAX34Y34*%
G01*
G70*
G90*
G04 APERTURE LIST*
%ADD10C,0.00590551*%
%ADD11C,0.055*%
%ADD12R,0.06X0.06*%
%ADD13C,0.06*%
%ADD14R,0.055X0.055*%
%ADD15O,0.0984X0.0709*%
%ADD16C,0.16*%
G04 APERTURE END LIST*
G54D10*
%LPC*%
G54D11*
X12000Y-16500D03*
X11000Y-16500D03*
X12000Y-14500D03*
X12000Y-13500D03*
X10500Y-8500D03*
X11500Y-8500D03*
X7000Y-17000D03*
X6000Y-17000D03*
X9500Y-17000D03*
X8500Y-17000D03*
G54D12*
X14500Y-8500D03*
G54D13*
X14500Y-9500D03*
X14500Y-10500D03*
X14500Y-11500D03*
X14500Y-12500D03*
G54D12*
X7000Y-9000D03*
G54D13*
X8000Y-9000D03*
G54D12*
X14500Y-15500D03*
G54D13*
X14500Y-16500D03*
G54D14*
X9500Y-15000D03*
G54D11*
X10500Y-15000D03*
X9000Y-11000D03*
X11000Y-11000D03*
X10000Y-11000D03*
X11000Y-12500D03*
X9000Y-12500D03*
X10000Y-12500D03*
X13000Y-8500D03*
X13000Y-10500D03*
X13000Y-9500D03*
X8000Y-15500D03*
X6000Y-15500D03*
X7000Y-15500D03*
G54D15*
X7496Y-12500D03*
X7496Y-13878D03*
X7496Y-11122D03*
X6315Y-11791D03*
X6315Y-13209D03*
G54D16*
X6250Y-6250D03*
X6250Y-19250D03*
X14500Y-6250D03*
X14500Y-19250D03*
M02*
