M48
;DRILL file {Pcbnew (2013-07-07 BZR 4022)-stable} date 3/7/2014 1:36:59 AM
;FORMAT={-:-/ absolute / inch / decimal}
FMAT,2
INCH,TZ
T1C0.032
T2C0.040
T3C0.047
T4C0.120
%
G90
G05
M72
T1
X0.6Y-1.55
X0.6Y-1.7
X0.7Y-1.55
X0.7Y-1.7
X0.8Y-1.55
X0.85Y-1.7
X0.9Y-1.1
X0.9Y-1.25
X0.95Y-1.5
X0.95Y-1.7
X1.Y-1.1
X1.Y-1.25
X1.05Y-0.85
X1.05Y-1.5
X1.1Y-1.1
X1.1Y-1.25
X1.1Y-1.65
X1.15Y-0.85
X1.2Y-1.35
X1.2Y-1.45
X1.2Y-1.65
X1.3Y-0.85
X1.3Y-0.95
X1.3Y-1.05
T2
X0.7Y-0.9
X0.8Y-0.9
X1.45Y-0.85
X1.45Y-0.95
X1.45Y-1.05
X1.45Y-1.15
X1.45Y-1.25
X1.45Y-1.55
X1.45Y-1.65
T3
X0.6315Y-1.1791
X0.6315Y-1.3209
X0.7496Y-1.1122
X0.7496Y-1.25
X0.7496Y-1.3878
T4
X0.625Y-0.625
X0.625Y-1.925
X1.45Y-0.625
X1.45Y-1.925
T0
M30
